<!DOCTYPE svg PUBLIC "-//W3C//DTD SVG 1.1//EN" "http://www.w3.org/Graphics/SVG/1.1/DTD/svg11.dtd">
<!-- Uploaded to: SVG Repo, www.svgrepo.com, Transformed by: SVG Repo Mixer Tools -->
<svg fill="#00ccbc" width="800px" height="800px" viewBox="0 0 16 16" xmlns="http://www.w3.org/2000/svg">
<g id="SVGRepo_bgCarrier" stroke-width="0"/>
<g id="SVGRepo_tracerCarrier" stroke-linecap="round" stroke-linejoin="round"/>
<g id="SVGRepo_iconCarrier">
<path d="M15 3.75h-3.49L11.11 2a1 1 0 0 0-1-.77H6A1 1 0 0 0 5 2l-.4 1.73H1a1 1 0 0 0-1 1v9a1 1 0 0 0 1 1h14a1 1 0 0 0 1-1v-9a1 1 0 0 0-1-.98zM6.17 2.5h3.76l.29 1.25H5.88zM14.75 5v2.5H1.25V5zm-13.5 8.5V8.75H6V9a1 1 0 0 0 1 1h2a1 1 0 0 0 1-1v-.25h4.75v4.75z"/>
</g>
</svg>