<!DOCTYPE svg PUBLIC "-//W3C//DTD SVG 1.1//EN" "http://www.w3.org/Graphics/SVG/1.1/DTD/svg11.dtd">
<!-- Uploaded to: SVG Repo, www.svgrepo.com, Transformed by: SVG Repo Mixer Tools -->
<svg version="1.1" id="_x32_" xmlns="http://www.w3.org/2000/svg" xmlns:xlink="http://www.w3.org/1999/xlink" viewBox="0 0 512 512" xml:space="preserve" width="800px" height="800px" fill="#00ccbc" transform="matrix(-1, 0, 0, 1, 0, 0)">
<g id="SVGRepo_bgCarrier" stroke-width="0"/>
<g id="SVGRepo_tracerCarrier" stroke-linecap="round" stroke-linejoin="round"/>
<g id="SVGRepo_iconCarrier"> <style type="text/css"> .st0{fill:#00ccbc;} </style> <g> <path class="st0" d="M147.238,207.793c21.254,0,38.489-17.227,38.489-38.481l14.054-147.238h-61.579l-29.444,147.238 C108.758,190.566,125.984,207.793,147.238,207.793z"/> <path class="st0" d="M256.005,207.793c21.245,0,38.48-17.227,38.48-38.481l-7.7-147.238h-61.571l-7.699,147.238 C217.516,190.566,234.75,207.793,256.005,207.793z"/> <path class="st0" d="M364.762,207.793c21.245,0,38.48-17.227,38.48-38.481L373.79,22.075h-61.571l14.054,147.238 C326.273,190.566,343.5,207.793,364.762,207.793z"/> <path class="st0" d="M460.794,22.075h-61.571l35.807,147.238c0,18.005,12.38,33.074,29.072,37.28v251.139h-57.991V311.838H276.564 v145.893H47.898V206.592c16.694-4.205,29.064-19.282,29.064-37.28l35.815-147.238H51.198L0,169.312 c0,12.717,6.194,23.954,15.695,30.959v289.654h480.61V200.272C505.807,193.266,512,182.03,512,169.312L460.794,22.075z"/> <rect x="99.552" y="271.378" class="st0" width="100.39" height="100.381"/> </g> </g>
</svg>