
        <svg xmlns="http://www.w3.org/2000/svg" xmlns:xlink="http://www.w3.org/1999/xlink" version="1.1" width="3213.8493020445903" 
        height="1089.5621939171888" viewBox="0 0 3213.8493020445903 1089.5621939171888">
			
			<g transform="scale(10.692465102229527) translate(10, 10)">
				<defs id="SvgjsDefs14636"></defs><g id="SvgjsG14637" featureKey="symbolGroupContainer" transform="matrix(0.9,0,0,0.9,0,0)" fill="#f27c0e"><rect width="83" height="91" rx="5"></rect></g><g id="SvgjsG14638" featureKey="mugSzh-0" transform="matrix(0.15517241379310345,0,0,0.15517241379310345,-2.2706877609779106,1.1999999408064217)" fill="#ffffff"><g xmlns="http://www.w3.org/2000/svg"><g><g><path d="M256.3,466c-111.9,0-203-91.1-203-203c0-3,2.5-5.5,5.5-5.5h395c3,0,5.5,2.5,5.5,5.5C459.3,374.9,368.3,466,256.3,466z      M64.5,268.5C67.4,371.8,152.3,455,256.3,455c104,0,189-83.2,191.9-186.5H64.5z"></path></g><g><path d="M256.3,466c-45,0-87.7-14.4-123.3-41.7c-34.5-26.4-60-63.9-71.9-105.5c-0.5-1.7-0.1-3.4,0.9-4.8c1-1.4,2.7-2.2,4.4-2.2     h379.9c1.7,0,3.4,0.8,4.4,2.2c1,1.4,1.4,3.2,0.9,4.8c-11.8,41.6-37.4,79.1-71.9,105.5C344,451.6,301.4,466,256.3,466z      M73.8,322.7C99.4,401,173.4,455,256.3,455s156.9-54,182.5-132.3H73.8z"></path></g><g><path d="M337.2,501.4H175.5c-2.1,0-4.1-1.2-5-3.1c-0.9-1.9-0.6-4.2,0.7-5.8l33.3-41.1c1.3-1.7,3.5-2.4,5.6-1.9     c14,3.4,28.3,5.3,42.6,5.5l3.7,0.1l3.7-0.1c14.2-0.3,28.6-2.1,42.6-5.5c2.1-0.5,4.2,0.2,5.6,1.9l33.3,41.1     c1.3,1.6,1.6,3.9,0.7,5.8S339.3,501.4,337.2,501.4z M187,490.4h138.7l-23.9-29.5c-13.7,3.1-27.7,4.8-41.6,5.1l-3.8,0.1     c-0.1,0-0.1,0-0.2,0l-3.8-0.1c-13.9-0.3-27.9-2-41.6-5.1L187,490.4z"></path></g><g><path d="M197.3,411.1c-39.3,0-74.2-26.4-84.9-64.1c-0.8-2.9,0.9-6,3.8-6.8c2.9-0.8,6,0.9,6.8,3.8c9.4,33,39.9,56.1,74.3,56.1     c3,0,5.5,2.5,5.5,5.5S200.3,411.1,197.3,411.1z"></path></g><g><path d="M420.9,268.5h-65.7c-0.1,0-0.2,0-0.3,0H83.8c-2.7,0-5-2-5.4-4.7c-0.3-1.9-0.5-3.9-0.5-5.8c0-20.8,16.9-37.7,37.8-37.7     c9.3,0,18,3.4,24.7,9.3v-20.8c0-11.1,9-20.1,20.1-20.1c8.4,0,15.7,5.2,18.6,12.6c8.6-5.6,19.1-8.6,29.8-8.6     c20.8,0,39,11,46.8,27.7c9.4-0.3,18.6,2.2,26.4,7.3c8.5-9.5,20.7-15,33.6-15c14.3,0,27.1,6.7,35.4,17.2     c3-7.4,10.2-12.6,18.6-12.6c8.8,0,16.3,5.7,19,13.7c1.1-0.1,2.1-0.1,3.2-0.1c17.9,0,33,14,34.4,31.8c0.1,1.5-0.4,3-1.5,4.2     C423.9,267.9,422.4,268.5,420.9,268.5z M360.2,257.5h54c-3.2-9.2-12-15.8-22.2-15.8c-2.2,0-4.2,0.3-6.2,0.8     c-1.6,0.4-3.4,0.1-4.8-0.9c-1.4-1-2.2-2.6-2.2-4.3c0-5-4.1-9.1-9.1-9.1c-5,0-9.1,4.1-9.1,9.1v17.9     C360.7,256.1,360.5,256.8,360.2,257.5z M88.9,257.5h261.3c-0.3-0.6-0.4-1.2-0.5-1.9c-1.1-17.9-16-31.9-34-31.9     c-11.2,0-21.7,5.5-28,14.7c-0.9,1.3-2.3,2.1-3.8,2.3c-1.5,0.2-3.1-0.3-4.3-1.3c-6.2-5.2-14-8.1-22.1-8.1c-1.6,0-3.1,0.1-4.7,0.3     c-2.6,0.3-5-1.2-5.9-3.6c-5-14.3-20.6-24.3-38.1-24.3c-11.5,0-22.4,4.3-30,11.8c-1.6,1.6-3.9,2-6,1.2c-2-0.9-3.4-2.9-3.4-5.1     v-2.8c0-5-4.1-9.1-9-9.1c-5,0-9.1,4.1-9.1,9.1v38.1c0,2.7-1.9,4.9-4.5,5.4c-2.6,0.5-5.2-1-6.1-3.5c-3.9-10.4-13.9-17.5-25.1-17.5     C101.1,231.3,89.2,243,88.9,257.5z"></path></g><g><path d="M187.6,255.6c-8.3,0-15.1-6.8-15.1-15.1c0-8.4,6.8-15.2,15.1-15.2c8.4,0,15.2,6.8,15.2,15.2     C202.7,248.8,195.9,255.6,187.6,255.6z M187.6,236.3c-2.3,0-4.1,1.9-4.1,4.2c0,2.3,1.9,4.1,4.1,4.1c2.3,0,4.2-1.9,4.2-4.1     C191.7,238.2,189.9,236.3,187.6,236.3z"></path></g><g><path d="M420.5,85.2H213.5c-2.7,0-5-2-5.4-4.7s1.2-5.3,3.8-6.1l185-57.2c2.9-0.9,6,0.7,6.9,3.6c0.9,2.9-0.7,6-3.6,6.9L249.9,74.2     h170.5c3,0,5.5,2.5,5.5,5.5S423.5,85.2,420.5,85.2z"></path></g><g><path d="M245.2,106.9c-3,0-5.5-2.5-5.5-5.5V31.8c0-3,2.5-5.5,5.5-5.5s5.5,2.5,5.5,5.5v69.6C250.7,104.4,248.2,106.9,245.2,106.9z     "></path></g><g><path d="M229.3,170.8c-3,0-5.5-2.5-5.5-5.5V60.5c0-3,2.5-5.5,5.5-5.5s5.5,2.5,5.5,5.5v104.8C234.8,168.3,232.3,170.8,229.3,170.8     z"></path></g><g><path d="M213.5,119.5c-3,0-5.5-2.5-5.5-5.5V44.5c0-3,2.5-5.5,5.5-5.5s5.5,2.5,5.5,5.5V114C219,117.1,216.5,119.5,213.5,119.5z"></path></g><g><path d="M198.5,92.1c-3,0-5.5-2.5-5.5-5.5V17.1c0-3,2.5-5.5,5.5-5.5s5.5,2.5,5.5,5.5v69.6C204,89.6,201.5,92.1,198.5,92.1z"></path></g></g></g></g><g id="SvgjsG14639" featureKey="nameLeftFeature-0" transform="matrix(2.7950306171612036,0,0,2.7950306171612036,92.2049693828388,3.0993823256781)" fill="#393e46"><path d="M1.26 20 c-0.14 0 -0.26 -0.12 -0.26 -0.26 l0 -11.98 c0 -0.14 0.12 -0.26 0.26 -0.26 l8.26 0 c0.08 0 0.14 0.02 0.18 0.08 c0.06 0.04 0.08 0.1 0.08 0.18 l-0.02 2.24 c0 0.14 -0.12 0.26 -0.26 0.26 l-5.4 0 l0 2.42 l3.4 0 c0.14 0 0.26 0.12 0.26 0.26 l0 2.26 c0 0.14 -0.12 0.26 -0.26 0.26 l-3.4 0 l0 4.28 c0 0.14 -0.1 0.26 -0.24 0.26 l-2.6 0 z M17.02 20 c-1.2 0 -2.3 -0.28 -3.26 -0.84 c-0.98 -0.56 -1.76 -1.36 -2.34 -2.32 c-0.56 -0.98 -0.84 -2.1 -0.84 -3.3 c0 -1.18 0.28 -2.28 0.84 -3.26 c0.58 -0.98 1.34 -1.76 2.32 -2.32 s2.08 -0.84 3.28 -0.84 c1.18 0 2.28 0.28 3.26 0.84 s1.76 1.34 2.32 2.32 c0.58 0.98 0.86 2.08 0.86 3.26 c0 1.2 -0.28 2.3 -0.86 3.28 c-0.56 0.98 -1.34 1.76 -2.32 2.34 c-0.98 0.56 -2.08 0.84 -3.26 0.84 z M17.060000000000002 17.12 c0.58 0 1.12 -0.16 1.6 -0.46 c0.5 -0.32 0.9 -0.74 1.18 -1.3 c0.3 -0.54 0.44 -1.16 0.44 -1.82 c0 -0.64 -0.14 -1.26 -0.44 -1.8 c-0.28 -0.54 -0.68 -0.96 -1.18 -1.28 c-0.48 -0.3 -1.02 -0.46 -1.6 -0.46 c-0.6 0 -1.14 0.16 -1.64 0.46 c-0.52 0.32 -0.92 0.74 -1.22 1.28 c-0.3 0.56 -0.44 1.16 -0.44 1.8 c0 0.66 0.14 1.28 0.44 1.82 c0.32 0.54 0.72 0.98 1.22 1.28 c0.5 0.32 1.04 0.48 1.64 0.48 z M31.700000000000003 20 c-1.2 0 -2.3 -0.28 -3.26 -0.84 c-0.98 -0.56 -1.76 -1.36 -2.34 -2.32 c-0.56 -0.98 -0.84 -2.1 -0.84 -3.3 c0 -1.18 0.28 -2.28 0.84 -3.26 c0.58 -0.98 1.34 -1.76 2.32 -2.32 s2.08 -0.84 3.28 -0.84 c1.18 0 2.28 0.28 3.26 0.84 s1.76 1.34 2.32 2.32 c0.58 0.98 0.86 2.08 0.86 3.26 c0 1.2 -0.28 2.3 -0.86 3.28 c-0.56 0.98 -1.34 1.76 -2.32 2.34 c-0.98 0.56 -2.08 0.84 -3.26 0.84 z M31.740000000000002 17.12 c0.58 0 1.12 -0.16 1.6 -0.46 c0.5 -0.32 0.9 -0.74 1.18 -1.3 c0.3 -0.54 0.44 -1.16 0.44 -1.82 c0 -0.64 -0.14 -1.26 -0.44 -1.8 c-0.28 -0.54 -0.68 -0.96 -1.18 -1.28 c-0.48 -0.3 -1.02 -0.46 -1.6 -0.46 c-0.6 0 -1.14 0.16 -1.64 0.46 c-0.52 0.32 -0.92 0.74 -1.22 1.28 c-0.3 0.56 -0.44 1.16 -0.44 1.8 c0 0.66 0.14 1.28 0.44 1.82 c0.32 0.54 0.72 0.98 1.22 1.28 c0.5 0.32 1.04 0.48 1.64 0.48 z"></path></g><g id="SvgjsG14640" featureKey="nameRightFeature-0" transform="matrix(2.380951648096304,0,0,2.380951648096304,203.00000170298932,11.38095682013796)" fill="#de0d2c"><path d="M6.5 4.9 c4.18 0 7.56 3.38 7.56 7.54 c0 4.18 -3.38 7.56 -7.56 7.56 l-4.36 0 c-1.18 0 -2.14 -0.96 -2.14 -2.14 l0 -10.68 c0 -0.32 0.28 -0.6 0.6 -0.6 c0.34 0 0.62 0.28 0.62 0.6 l0 10.68 c0 0.52 0.4 0.92 0.92 0.92 l4.36 0 c3.5 0 6.34 -2.84 6.34 -6.34 c0 -3.48 -2.84 -6.34 -6.34 -6.34 c-0.32 0 -0.6 -0.26 -0.6 -0.6 s0.28 -0.6 0.6 -0.6 z M2.3 6.58 l4.2 0 c3.24 0 5.88 2.64 5.88 5.86 c0 3.24 -2.64 5.88 -5.88 5.88 c-0.32 0 -0.6 -0.28 -0.6 -0.62 s0.28 -0.6 0.6 -0.6 c2.56 0 4.66 -2.1 4.66 -4.66 s-2.1 -4.64 -4.66 -4.64 l-3.58 0 l0 9.9 c0 0.34 -0.28 0.62 -0.62 0.62 s-0.6 -0.28 -0.6 -0.62 l0 -10.52 c0 -0.32 0.26 -0.6 0.6 -0.6 z M17.14 4.880000000000001 c0.8 0 1.46 0.66 1.46 1.48 l0 13.04 c0 0.32 -0.26 0.6 -0.6 0.6 s-0.62 -0.28 -0.62 -0.6 l0 -13.04 c0 -0.14 -0.1 -0.26 -0.24 -0.26 s-0.26 0.12 -0.26 0.26 l0 6.08 c0 0.34 -0.28 0.6 -0.62 0.6 c-0.32 0 -0.6 -0.26 -0.6 -0.6 l0 -6.08 c0 -0.82 0.66 -1.48 1.48 -1.48 z M23.7 4.880000000000001 l7.42 0 c0.8 0 1.46 0.66 1.46 1.46 s-0.62 1.48 -1.42 1.48 l-7.46 0 c-0.3 0 -0.56 0.24 -0.56 0.56 c0 0.3 0.26 0.56 0.56 0.56 c0.34 0 0.62 0.26 0.62 0.6 s-0.28 0.62 -0.62 0.62 c-0.98 0 -1.76 -0.8 -1.76 -1.78 s0.78 -1.78 1.76 -1.78 l7.42 0 c0.14 0 0.24 -0.12 0.24 -0.26 s-0.1 -0.24 -0.24 -0.24 l-7.42 0 c-1.26 0 -2.28 1.02 -2.28 2.28 s1.02 2.28 2.28 2.28 l5.38 0 c0.98 0 1.78 0.8 1.78 1.8 c0 0.98 -0.8 1.76 -1.78 1.76 l-5.38 0 c-1.26 0 -2.28 1.02 -2.28 2.28 s1.02 2.28 2.28 2.28 l8.26 0 c0.34 0 0.62 0.28 0.62 0.62 s-0.28 0.6 -0.62 0.6 l-8.26 0 c-1.94 0 -3.5 -1.56 -3.5 -3.5 c0 -1.92 1.56 -3.5 3.5 -3.5 l5.38 0 c0.32 0 0.56 -0.24 0.56 -0.54 c0 -0.34 -0.24 -0.58 -0.56 -0.58 l-5.38 0 c-1.92 0 -3.5 -1.58 -3.5 -3.5 c0 -1.94 1.58 -3.5 3.5 -3.5 z M23.7 14.74 l5.38 0 c0.34 0 0.62 0.26 0.62 0.6 s-0.28 0.62 -0.62 0.62 l-5.38 0 c-0.3 0 -0.56 0.24 -0.56 0.54 c0 0.32 0.26 0.56 0.56 0.56 c0.34 0 0.6 0.28 0.6 0.62 c0 0.32 -0.26 0.6 -0.6 0.6 c-0.98 0 -1.78 -0.8 -1.78 -1.78 s0.8 -1.76 1.78 -1.76 z"></path></g>
			</g>
		</svg>
	