<svg xmlns="http://www.w3.org/2000/svg" xmlns:xlink="http://www.w3.org/1999/xlink" viewBox="0,0,256,256" width="64px" height="64px" fill-rule="nonzero"><g transform=""><g fill="#20c997" fill-rule="nonzero" stroke="none" stroke-width="1" stroke-linecap="butt" stroke-linejoin="miter" stroke-miterlimit="10" stroke-dasharray="" stroke-dashoffset="0" font-family="none" font-weight="none" font-size="none" text-anchor="none" style="mix-blend-mode: normal"><g transform="scale(3.55556,3.55556)"><path d="M36,10c-1.139,0 -2.27708,0.38661 -3.20508,1.16211l-21.27734,17.7793c-1.465,1.224 -1.96564,3.32881 -1.05664,5.00781c0.75877,1.40048 2.14295,2.11605 3.53906,2.11719v13.93359c0,4.418 3.582,8 8,8h28c4.418,0 8,-3.582 8,-8v-13.92187c1.17234,-0.00057 2.33439,-0.51145 3.12695,-1.50391c1.377,-1.724 0.98597,-4.27055 -0.70703,-5.68555l-2.41992,-2.02148v-10.19922c0,-1.473 -1.19402,-2.66797 -2.66602,-2.66797h-2.66602c-1.473,0 -2.66797,1.19497 -2.66797,2.66797v3.51367l-10.79492,-9.01953c-0.928,-0.7755 -2.06608,-1.16211 -3.20508,-1.16211zM36,19.21289c0.22775,0 0.45513,0.07742 0.64063,0.23242l13.35938,11.16211v18.89258c0,0.276 -0.224,0.5 -0.5,0.5h-7.5v-12c0,-1.105 -0.895,-2 -2,-2h-8c-1.105,0 -2,0.895 -2,2v12h-7.5c-0.276,0 -0.5,-0.224 -0.5,-0.5v-18.89258l13.35938,-11.16211c0.1855,-0.155 0.41287,-0.23242 0.64063,-0.23242z"></path></g></g></g></svg>