<!DOCTYPE svg PUBLIC "-//W3C//DTD SVG 1.1//EN" "http://www.w3.org/Graphics/SVG/1.1/DTD/svg11.dtd">
<!-- Uploaded to: SVG Repo, www.svgrepo.com, Transformed by: SVG Repo Mixer Tools -->
<svg fill="#abadad" height="800px" width="800px" version="1.1" id="Capa_1" xmlns="http://www.w3.org/2000/svg" xmlns:xlink="http://www.w3.org/1999/xlink" viewBox="0 0 295.125 295.125" xml:space="preserve">
<g id="SVGRepo_bgCarrier" stroke-width="0"/>
<g id="SVGRepo_tracerCarrier" stroke-linecap="round" stroke-linejoin="round"/>
<g id="SVGRepo_iconCarrier"> <path d="M236.078,140.047c-0.073,0-0.145,0.005-0.218,0.006l-8.122-65.867l19.248-8.016c6.771-2.82,10.494-9.813,9.057-17.005 c-1.438-7.191-7.564-12.214-14.898-12.214h-44.02c-4.143,0-7.5,3.357-7.5,7.5s3.357,7.5,7.5,7.5h44.02 c0.063,0,0.109,0.004,0.144,0.008c0.039,0.082,0.064,0.21,0.06,0.302c-0.029,0.017-0.071,0.038-0.129,0.062l-24.505,10.205 c-3.107,1.294-4.972,4.751-4.56,8.092l4.449,36.332H104.733l-10.82-11.07l26.627-8.24c4.738-1.444,7.706-6.202,6.976-11.102 c-0.729-4.899-4.937-8.589-9.891-8.589h-66c-3.892,0-7.429,2.257-9.068,5.786c-1.641,3.529-1.084,7.688,1.426,10.662l13.5,16 c1.932,2.29,4.745,3.552,7.644,3.552c0.972,0,1.953-0.142,2.914-0.435l9.613-2.93l16.818,16.817 c0.712,1.369,1.832,2.489,3.201,3.201l38.964,38.962c4.485,4.486,5.714,10.913,3.286,16.774c-2.427,5.86-7.663,9.609-14.007,9.609 h-9.364c-5.956-26-28.5-44.966-55.577-45.83c-16.885-0.537-32.672,5.766-44.343,17.814c-11.22,11.584-17.115,26.793-16.6,42.94 c0.99,31.023,26.066,56.069,57.09,57.06c0.646,0.021,1.285,0.016,1.926,0.016c16.129,0,31.192-6.141,42.417-17.729 c10.408-10.745,16.225-25.271,16.602-39.271h7.849c12.431,0,23.108-7.385,27.865-18.869c4.758-11.484,2.253-23.955-6.537-32.746 l-27.51-27.385h96.892c0.622,0,1.223-0.334,1.8-0.477l2.563,20.659c-25.272,6.686-43.958,29.678-43.958,57.022 c0,32.56,26.488,59.017,59.048,59.017c32.559,0,59.047-26.504,59.047-59.063C295.125,166.551,268.637,140.047,236.078,140.047z M90.689,229.779c-8.709,8.991-20.479,13.653-33.09,13.259c-23.136-0.738-41.838-19.503-42.576-42.64 c-0.385-12.052,4.013-23.479,12.382-32.12c8.374-8.645,19.611-13.422,31.643-13.422c0.481,0,0.962,0.25,1.447,0.266 c18.969,0.605,34.949,12.83,40.5,30.83h-52.37c-4.143,0-7.5,3.357-7.5,7.5s3.357,7.5,7.5,7.5h54.431 C102.68,210.952,98.358,221.862,90.689,229.779z M236.078,243.142c-24.288,0-44.048-19.76-44.048-44.048 c0-19.679,12.974-36.382,30.816-42.013l5.269,42.725c0.468,3.8,3.701,6.583,7.434,6.583c0.307,0,0.616-0.019,0.928-0.058 c4.111-0.507,7.032-4.25,6.525-8.361l-5.288-42.881c23.531,0.865,42.411,20.267,42.411,44.005 C280.125,223.382,260.365,243.142,236.078,243.142z"/> </g>
</svg>