<!DOCTYPE svg PUBLIC "-//W3C//DTD SVG 1.1//EN" "http://www.w3.org/Graphics/SVG/1.1/DTD/svg11.dtd">
<!-- Uploaded to: SVG Repo, www.svgrepo.com, Transformed by: SVG Repo Mixer Tools -->
<svg version="1.1" id="_x32_" xmlns="http://www.w3.org/2000/svg" xmlns:xlink="http://www.w3.org/1999/xlink" viewBox="0 0 512 512" xml:space="preserve" width="800px" height="800px" fill="#abadad">
<g id="SVGRepo_bgCarrier" stroke-width="0"/>
<g id="SVGRepo_tracerCarrier" stroke-linecap="round" stroke-linejoin="round"/>
<g id="SVGRepo_iconCarrier"> <style type="text/css"> .st0{fill:#abadad;} </style> <g> <path class="st0" d="M0,19.169v123.46v350.202h512v-14.913v-335.29V19.169H0z M319.132,48.994h66.612v93.635 c-0.007,9.232-3.706,17.468-9.757,23.541c-6.073,6.051-14.308,9.75-23.549,9.758c-9.24-0.008-17.476-3.707-23.549-9.758 c-6.051-6.073-9.75-14.301-9.757-23.541V48.994z M222.694,48.994h66.612v93.635c-0.007,9.24-3.706,17.468-9.758,23.541 c-6.072,6.051-14.3,9.75-23.541,9.758c-9.247-0.008-17.483-3.707-23.556-9.758c-6.051-6.073-9.75-14.301-9.758-23.541V48.994z M126.264,48.994h66.605v93.635c-0.007,9.24-3.706,17.468-9.75,23.541c-6.08,6.051-14.308,9.75-23.556,9.758 c-9.24-0.008-17.468-3.707-23.541-9.758c-6.051-6.073-9.75-14.301-9.757-23.541V48.994z M29.826,48.994h66.612v93.635 c-0.008,9.24-3.706,17.468-9.758,23.541c-6.072,6.051-14.308,9.75-23.556,9.758c-9.24-0.008-17.468-3.707-23.541-9.758 c-6.051-6.073-9.75-14.301-9.758-23.541V48.994z M482.174,463.006H338.96v-96.482H173.048v96.482H29.826V196.178 c9.67,6.029,21.058,9.568,33.299,9.576c19.355-0.008,36.649-8.731,48.226-22.435c11.578,13.704,28.864,22.427,48.211,22.435 c19.355,0,36.642-8.723,48.219-22.428c11.585,13.697,28.872,22.42,48.226,22.428c19.347-0.008,36.634-8.731,48.212-22.435 c11.578,13.704,28.864,22.427,48.219,22.435c19.348-0.008,36.634-8.731,48.219-22.428c11.578,13.704,28.864,22.428,48.219,22.428 c12.24-0.008,23.629-3.546,33.298-9.576V463.006z M482.174,142.629c-0.006,9.24-3.706,17.468-9.757,23.541 c-6.072,6.051-14.301,9.75-23.541,9.758c-9.248-0.008-17.476-3.707-23.556-9.758c-6.044-6.073-9.742-14.301-9.75-23.541V48.994 h66.605V142.629z"/> <rect x="106.872" y="244.987" class="st0" width="49.712" height="58.253"/> <rect x="355.416" y="244.987" class="st0" width="49.712" height="58.253"/> <rect x="231.141" y="244.987" class="st0" width="49.718" height="58.253"/> </g> </g>
</svg>