<!DOCTYPE svg PUBLIC "-//W3C//DTD SVG 1.1//EN" "http://www.w3.org/Graphics/SVG/1.1/DTD/svg11.dtd">
<!-- Uploaded to: SVG Repo, www.svgrepo.com, Transformed by: SVG Repo Mixer Tools -->
<svg fill="#abadad" width="89px" height="89px" viewBox="0 0 24.00 24.00" xmlns="http://www.w3.org/2000/svg" stroke="#abadad" stroke-width="0.00024000000000000003">
<g id="SVGRepo_bgCarrier" stroke-width="0"/>
<g id="SVGRepo_tracerCarrier" stroke-linecap="round" stroke-linejoin="round"/>
<g id="SVGRepo_iconCarrier"> <g data-name="Layer 2"> <g data-name="menu-arrow-circle"> <rect width="24" height="24" transform="rotate(180 12 12)" opacity="0"/> <path d="M12 2a10 10 0 1 0 10 10A10 10 0 0 0 12 2zm0 18a8 8 0 1 1 8-8 8 8 0 0 1-8 8z"/> <path d="M12 6a3.5 3.5 0 0 0-3.5 3.5 1 1 0 0 0 2 0A1.5 1.5 0 1 1 12 11a1 1 0 0 0-1 1v2a1 1 0 0 0 2 0v-1.16A3.49 3.49 0 0 0 12 6z"/> <circle cx="12" cy="17" r="1"/> </g> </g> </g>
</svg>