<!DOCTYPE svg PUBLIC "-//W3C//DTD SVG 1.1//EN" "http://www.w3.org/Graphics/SVG/1.1/DTD/svg11.dtd">
<!-- Uploaded to: SVG Repo, www.svgrepo.com, Transformed by: SVG Repo Mixer Tools -->
<svg fill="#abadad" version="1.1" id="Capa_1" xmlns="http://www.w3.org/2000/svg" xmlns:xlink="http://www.w3.org/1999/xlink" width="64px" height="64px" viewBox="0 0 465.119 465.119" xml:space="preserve">
<g id="SVGRepo_bgCarrier" stroke-width="0"/>
<g id="SVGRepo_tracerCarrier" stroke-linecap="round" stroke-linejoin="round"/>
<g id="SVGRepo_iconCarrier"> <g> <g> <rect x="177.309" y="281.897" width="113.562" height="90.27"/> <polygon points="162.009,441.528 162.009,387.468 47.035,387.468 61.2,441.528 "/> <rect x="177.309" y="207.947" width="113.562" height="58.652"/> <rect x="177.309" y="387.468" width="113.562" height="54.061"/> <polygon points="445.744,281.897 306.172,281.897 306.172,372.167 422.094,372.167 "/> <polygon points="306.172,441.528 403.92,441.528 418.084,387.468 306.172,387.468 "/> <polygon points="162.009,281.897 19.376,281.897 43.027,372.167 162.009,372.167 "/> <path d="M0,207.947l15.367,58.652h146.642v-58.652h-56.524l78.832-103.492c-16.163-2.506-29.829-12.978-36.506-27.825 L47.785,207.947H0z"/> <path d="M224.075,49.164c-3.559-15.264-17.157-25.573-32.185-25.573c-2.488,0-5.015,0.282-7.54,0.872 c-16.955,3.954-27.763,20.297-25.153,37.222c0.128,0.832,0.257,1.667,0.453,2.503c3.559,15.263,17.157,25.572,32.185,25.572 c1.276,0,2.561-0.08,3.853-0.232c1.227-0.144,2.457-0.352,3.688-0.64c15.266-3.559,25.542-17.164,25.542-32.194 c0-0.48-0.037-0.958-0.021-1.438C224.803,53.239,224.549,51.201,224.075,49.164z"/> <path d="M317.307,76.633c-6.678,14.847-20.34,25.315-36.502,27.821l78.832,103.492h-53.469v58.652H449.75l15.369-58.652h-47.787 L317.307,76.633z"/> <path d="M241.045,49.164c-0.475,2.041-0.729,4.076-0.816,6.095c0.016,0.48-0.025,0.958-0.021,1.438 c-0.004,15.027,10.275,28.632,25.541,32.194c1.23,0.288,2.461,0.496,3.688,0.639c1.291,0.153,2.576,0.233,3.854,0.233 c15.027,0,28.623-10.309,32.186-25.573c0.195-0.835,0.324-1.667,0.451-2.5c2.613-16.928-8.193-33.271-25.152-37.225 c-2.527-0.591-5.053-0.872-7.539-0.872C258.203,23.591,244.604,33.9,241.045,49.164z"/> </g> </g> </g>
</svg>